
<svg width="32" height="32" viewBox="0 0 32 32" fill="none" xmlns="http://www.w3.org/2000/svg">
<g clip-path="url(#clip0_6521_3302)">
<path d="M15.8876 32C24.662 32 31.7751 24.8364 31.7751 15.9999C31.7751 7.16346 24.662 0 15.8876 0C7.11309 0 0 7.16346 0 15.9999C0 24.8364 7.11309 32 15.8876 32Z" fill="#0071F3"/>
<path d="M18.4126 6.40166H16.6681H12.8229C12.2038 6.40166 11.6599 6.85498 11.5661 7.4784L11.1722 10.0285V10.0475H9.29638C8.79002 10.0475 8.39608 10.463 8.39608 10.9542C8.39608 11.4641 8.80872 11.8609 9.29638 11.8798H10.8908L10.6095 13.6366L10.5907 13.7688H8.71492C8.20855 13.7688 7.81458 14.1844 7.81458 14.6755C7.81458 15.1667 8.22725 15.5822 8.71492 15.5822H10.3093L9.44647 21.0795L9.16515 22.9117L9.01506 23.8939C8.90252 24.6686 9.48406 25.3672 10.2718 25.3672H11.4723H13.123H14.4735C15.0925 25.3672 15.6177 24.914 15.7302 24.2905L16.5368 19.2468H17.0058H18.5064C22.0515 19.2468 24.9401 16.3001 24.8839 12.711C24.8276 9.1785 21.9014 6.40166 18.4126 6.40166ZM12.7291 11.8798L18.3937 11.8987C18.9002 11.8987 19.3316 12.3142 19.3316 12.8431C19.3316 13.3532 18.919 13.7877 18.3937 13.7877H12.4289L12.7291 11.8798ZM18.4313 17.3957H17.4746H17.0245H16.0679C15.4488 17.3957 14.9237 17.8492 14.8111 18.4724L14.0046 23.5349H10.9283L12.1475 15.6012H18.3937C19.9131 15.6012 21.1324 14.3544 21.1324 12.8431C21.1324 11.332 19.8944 10.0853 18.3937 10.0853L13.0292 10.0664L13.3105 8.25283H18.5251C21.0761 8.25283 23.1394 10.3685 23.0832 12.9377C23.0081 15.4311 20.926 17.3957 18.4313 17.3957Z" fill="white"/>
</g>
<defs>
<clipPath id="clip0_6521_3302">
<rect width="32" height="32" fill="white"/>
</clipPath>
</defs>
</svg>
